<svg xmlns="http://www.w3.org/2000/svg" version="1.1" xmlns:xlink="http://www.w3.org/1999/xlink" xmlns:svgjs="http://svgjs.dev/svgjs" width="1500" height="1500" viewBox="0 0 1500 1500"><rect width="1500" height="1500" fill="#ffffff"></rect><g transform="matrix(0.6666666666666666,0,0,0.6666666666666666,249.39393939393938,438.5856950067477)"><svg viewBox="0 0 396 247" data-background-color="#ffffff" preserveAspectRatio="xMidYMid meet" height="935" width="1500" xmlns="http://www.w3.org/2000/svg" xmlns:xlink="http://www.w3.org/1999/xlink"><g id="tight-bounds" transform="matrix(1,0,0,1,0.2400000000000091,-0.09999999999999432)"><svg viewBox="0 0 395.52 247.2" height="247.2" width="395.52"><g><svg></svg></g><g><svg viewBox="0 0 395.52 247.2" height="247.2" width="395.52"><g transform="matrix(1,0,0,1,75.54432,84.05648887999455)"><svg viewBox="0 0 244.43135999999998 79.0870222400109" height="79.0870222400109" width="244.43135999999998"><g><svg viewBox="0 0 244.43135999999998 79.0870222400109" height="79.0870222400109" width="244.43135999999998"><g><svg viewBox="0 0 244.43135999999998 79.0870222400109" height="79.0870222400109" width="244.43135999999998"><g id="textblocktransform"><svg viewBox="0 0 244.43135999999998 79.0870222400109" height="79.0870222400109" width="244.43135999999998" id="textblock"><g><svg viewBox="0 0 244.43135999999998 43.760090025575444" height="43.760090025575444" width="244.43135999999998"><g transform="matrix(1,0,0,1,0,0)"><svg width="244.43135999999998" viewBox="1.7999999999999998 -28 156.38 28" height="43.760090025575444" data-palette-color="#000000"><path d="M18-12Q18.2-11.2 18.2-10L18.2-10Q18.2-8.85 18-8L18-8Q18.2-7.2 18.2-6L18.2-6Q18.2-4.85 18-4L18-4 16-4Q16.2-3.2 16.2-2L16.2-2Q16.2-0.85 16 0L16 0 4 0Q3.8-0.85 3.8-2L3.8-2Q3.8-3.2 4-4L4-4 2-4Q1.8-4.85 1.8-6L1.8-6Q1.8-7.2 2-8L2-8 6-8Q6.2-7.2 6.2-6L6.2-6Q6.2-4.85 6-4L6-4 14-4Q13.8-4.85 13.8-6L13.8-6Q13.8-7.2 14-8L14-8Q13.8-8.85 13.8-10L13.8-10Q13.8-11.2 14-12L14-12 4-12Q3.8-12.85 3.8-14L3.8-14Q3.8-15.2 4-16L4-16 2-16Q1.8-16.85 1.8-18L1.8-18Q1.8-19.2 2-20L2-20Q1.8-20.85 1.8-22L1.8-22Q1.8-23.2 2-24L2-24 4-24Q3.8-24.85 3.8-26L3.8-26Q3.8-27.2 4-28L4-28 16-28Q16.2-27.2 16.2-26L16.2-26Q16.2-24.85 16-24L16-24 18-24Q18.2-23.2 18.2-22L18.2-22Q18.2-20.85 18-20L18-20 14-20Q13.8-20.85 13.8-22L13.8-22Q13.8-23.2 14-24L14-24 6-24Q6.2-23.2 6.2-22L6.2-22Q6.2-20.85 6-20L6-20Q6.2-19.2 6.2-18L6.2-18Q6.2-16.85 6-16L6-16 16-16Q16.2-15.2 16.2-14L16.2-14Q16.2-12.85 16-12L16-12 18-12ZM38.2-6Q38.2-4.85 38-4L38-4Q38.2-3.2 38.2-2L38.2-2Q38.2-0.85 38 0L38 0 34 0Q33.8-0.85 33.8-2L33.8-2Q33.8-3.2 34-4L34-4Q33.8-4.85 33.8-6L33.8-6Q33.8-7.2 34-8L34-8 26-8Q26.2-7.2 26.2-6L26.2-6Q26.2-4.85 26-4L26-4Q26.2-3.2 26.2-2L26.2-2Q26.2-0.85 26 0L26 0 22 0Q21.8-0.85 21.8-2L21.8-2Q21.8-3.2 22-4L22-4Q21.8-4.85 21.8-6L21.8-6Q21.8-7.2 22-8L22-8 23.5-8Q23.3-8.85 23.3-10L23.3-10Q23.3-11.2 23.5-12L23.5-12Q23.3-12.85 23.3-14L23.3-14Q23.3-15.2 23.5-16L23.5-16 24.5-16Q24.3-16.85 24.3-18L24.3-18Q24.3-19.2 24.5-20L24.5-20 26-20Q25.8-20.85 25.8-22L25.8-22Q25.8-23.2 26-24L26-24 27-24Q26.8-24.85 26.8-26L26.8-26Q26.8-27.2 27-28L27-28 33-28Q33.2-27.2 33.2-26L33.2-26Q33.2-24.85 33-24L33-24 34-24Q34.2-23.2 34.2-22L34.2-22Q34.2-20.85 34-20L34-20 35.5-20Q35.7-19.2 35.7-18L35.7-18Q35.7-16.85 35.5-16L35.5-16 36.5-16Q36.7-15.2 36.7-14L36.7-14Q36.7-12.85 36.5-12L36.5-12Q36.7-11.2 36.7-10L36.7-10Q36.7-8.85 36.5-8L36.5-8 38-8Q38.2-7.2 38.2-6L38.2-6ZM32.5-12Q32.3-12.85 32.3-14L32.3-14Q32.3-15.2 32.5-16L32.5-16 31.5-16Q31.3-16.85 31.3-18L31.3-18Q31.3-19.2 31.5-20L31.5-20 28.5-20Q28.7-19.2 28.7-18L28.7-18Q28.7-16.85 28.5-16L28.5-16 27.5-16Q27.7-15.2 27.7-14L27.7-14Q27.7-12.85 27.5-12L27.5-12 32.5-12ZM58-24Q58.2-23.2 58.2-22L58.2-22Q58.2-20.85 58-20L58-20Q58.2-19.2 58.2-18L58.2-18Q58.2-16.85 58-16L58-16Q58.2-15.2 58.2-14L58.2-14Q58.2-12.85 58-12L58-12Q58.2-11.2 58.2-10L58.2-10Q58.2-8.85 58-8L58-8Q58.2-7.2 58.2-6L58.2-6Q58.2-4.85 58-4L58-4Q58.2-3.2 58.2-2L58.2-2Q58.2-0.85 58 0L58 0 54 0Q53.8-0.85 53.8-2L53.8-2Q53.8-3.2 54-4L54-4 51.5-4Q51.3-4.85 51.3-6L51.3-6Q51.3-7.2 51.5-8L51.5-8 50-8Q49.8-8.85 49.8-10L49.8-10Q49.8-11.2 50-12L50-12 48-12Q47.8-12.85 47.8-14L47.8-14Q47.8-15.2 48-16L48-16 46-16Q46.2-15.2 46.2-14L46.2-14Q46.2-12.85 46-12L46-12Q46.2-11.2 46.2-10L46.2-10Q46.2-8.85 46-8L46-8Q46.2-7.2 46.2-6L46.2-6Q46.2-4.85 46-4L46-4Q46.2-3.2 46.2-2L46.2-2Q46.2-0.85 46 0L46 0 42 0Q41.8-0.85 41.8-2L41.8-2Q41.8-3.2 42-4L42-4Q41.8-4.85 41.8-6L41.8-6Q41.8-7.2 42-8L42-8Q41.8-8.85 41.8-10L41.8-10Q41.8-11.2 42-12L42-12Q41.8-12.85 41.8-14L41.8-14Q41.8-15.2 42-16L42-16Q41.8-16.85 41.8-18L41.8-18Q41.8-19.2 42-20L42-20Q41.8-20.85 41.8-22L41.8-22Q41.8-23.2 42-24L42-24Q41.8-24.85 41.8-26L41.8-26Q41.8-27.2 42-28L42-28 47-28Q47.2-27.2 47.2-26L47.2-26Q47.2-24.85 47-24L47-24 48.5-24Q48.7-23.2 48.7-22L48.7-22Q48.7-20.85 48.5-20L48.5-20 50-20Q50.2-19.2 50.2-18L50.2-18Q50.2-16.85 50-16L50-16 52-16Q52.2-15.2 52.2-14L52.2-14Q52.2-12.85 52-12L52-12 54-12Q53.8-12.85 53.8-14L53.8-14Q53.8-15.2 54-16L54-16Q53.8-16.85 53.8-18L53.8-18Q53.8-19.2 54-20L54-20Q53.8-20.85 53.8-22L53.8-22Q53.8-23.2 54-24L54-24Q53.8-24.85 53.8-26L53.8-26Q53.8-27.2 54-28L54-28 58-28Q58.2-27.2 58.2-26L58.2-26Q58.2-24.85 58-24L58-24ZM78.19-26Q78.19-24.85 77.99-24L77.99-24 71.99-24Q72.19-23.2 72.19-22L72.19-22Q72.19-20.85 71.99-20L71.99-20Q72.19-19.2 72.19-18L72.19-18Q72.19-16.85 71.99-16L71.99-16Q72.19-15.2 72.19-14L72.19-14Q72.19-12.85 71.99-12L71.99-12Q72.19-11.2 72.19-10L72.19-10Q72.19-8.85 71.99-8L71.99-8Q72.19-7.2 72.19-6L72.19-6Q72.19-4.85 71.99-4L71.99-4Q72.19-3.2 72.19-2L72.19-2Q72.19-0.85 71.99 0L71.99 0 67.99 0Q67.79-0.85 67.79-2L67.79-2Q67.79-3.2 67.99-4L67.99-4Q67.79-4.85 67.79-6L67.79-6Q67.79-7.2 67.99-8L67.99-8Q67.79-8.85 67.79-10L67.79-10Q67.79-11.2 67.99-12L67.99-12Q67.79-12.85 67.79-14L67.79-14Q67.79-15.2 67.99-16L67.99-16Q67.79-16.85 67.79-18L67.79-18Q67.79-19.2 67.99-20L67.99-20Q67.79-20.85 67.79-22L67.79-22Q67.79-23.2 67.99-24L67.99-24 61.99-24Q61.79-24.85 61.79-26L61.79-26Q61.79-27.2 61.99-28L61.99-28 77.99-28Q78.19-27.2 78.19-26L78.19-26ZM91.99-4L94.99-4Q95.19-3.2 95.19-2L95.19-2Q95.19-0.85 94.99 0L94.99 0 84.99 0Q84.79-0.85 84.79-2L84.79-2Q84.79-3.2 84.99-4L84.99-4 87.99-4Q87.79-4.85 87.79-6L87.79-6Q87.79-7.2 87.99-8L87.99-8Q87.79-8.85 87.79-10L87.79-10Q87.79-11.2 87.99-12L87.99-12Q87.79-12.85 87.79-14L87.79-14Q87.79-15.2 87.99-16L87.99-16Q87.79-16.85 87.79-18L87.79-18Q87.79-19.2 87.99-20L87.99-20Q87.79-20.85 87.79-22L87.79-22Q87.79-23.2 87.99-24L87.99-24 84.99-24Q84.79-24.85 84.79-26L84.79-26Q84.79-27.2 84.99-28L84.99-28 94.99-28Q95.19-27.2 95.19-26L95.19-26Q95.19-24.85 94.99-24L94.99-24 91.99-24Q92.19-23.2 92.19-22L92.19-22Q92.19-20.85 91.99-20L91.99-20Q92.19-19.2 92.19-18L92.19-18Q92.19-16.85 91.99-16L91.99-16Q92.19-15.2 92.19-14L92.19-14Q92.19-12.85 91.99-12L91.99-12Q92.19-11.2 92.19-10L92.19-10Q92.19-8.85 91.99-8L91.99-8Q92.19-7.2 92.19-6L92.19-6Q92.19-4.85 91.99-4L91.99-4ZM117.99-16Q118.19-15.2 118.19-14L118.19-14Q118.19-12.85 117.99-12L117.99-12Q118.19-11.2 118.19-10L118.19-10Q118.19-8.85 117.99-8L117.99-8 115.99-8Q116.19-7.2 116.19-6L116.19-6Q116.19-4.85 115.99-4L115.99-4 113.99-4Q114.19-3.2 114.19-2L114.19-2Q114.19-0.85 113.99 0L113.99 0 101.99 0Q101.79-0.85 101.79-2L101.79-2Q101.79-3.2 101.99-4L101.99-4Q101.79-4.85 101.79-6L101.79-6Q101.79-7.2 101.99-8L101.99-8Q101.79-8.85 101.79-10L101.79-10Q101.79-11.2 101.99-12L101.99-12Q101.79-12.85 101.79-14L101.79-14Q101.79-15.2 101.99-16L101.99-16Q101.79-16.85 101.79-18L101.79-18Q101.79-19.2 101.99-20L101.99-20Q101.79-20.85 101.79-22L101.79-22Q101.79-23.2 101.99-24L101.99-24Q101.79-24.85 101.79-26L101.79-26Q101.79-27.2 101.99-28L101.99-28 113.99-28Q114.19-27.2 114.19-26L114.19-26Q114.19-24.85 113.99-24L113.99-24 115.99-24Q116.19-23.2 116.19-22L116.19-22Q116.19-20.85 115.99-20L115.99-20 117.99-20Q118.19-19.2 118.19-18L118.19-18Q118.19-16.85 117.99-16L117.99-16ZM113.99-8Q113.79-8.85 113.79-10L113.79-10Q113.79-11.2 113.99-12L113.99-12Q113.79-12.85 113.79-14L113.79-14Q113.79-15.2 113.99-16L113.99-16Q113.79-16.85 113.79-18L113.79-18Q113.79-19.2 113.99-20L113.99-20 111.99-20Q111.79-20.85 111.79-22L111.79-22Q111.79-23.2 111.99-24L111.99-24 105.99-24Q106.19-23.2 106.19-22L106.19-22Q106.19-20.85 105.99-20L105.99-20Q106.19-19.2 106.19-18L106.19-18Q106.19-16.85 105.99-16L105.99-16Q106.19-15.2 106.19-14L106.19-14Q106.19-12.85 105.99-12L105.99-12Q106.19-11.2 106.19-10L106.19-10Q106.19-8.85 105.99-8L105.99-8Q106.19-7.2 106.19-6L106.19-6Q106.19-4.85 105.99-4L105.99-4 111.99-4Q111.79-4.85 111.79-6L111.79-6Q111.79-7.2 111.99-8L111.99-8 113.99-8ZM135.99-12L127.99-12Q128.19-11.2 128.19-10L128.19-10Q128.19-8.85 127.99-8L127.99-8Q128.19-7.2 128.19-6L128.19-6Q128.19-4.85 127.99-4L127.99-4 135.99-4Q136.19-3.2 136.19-2L136.19-2Q136.19-0.85 135.99 0L135.99 0 123.99 0Q123.79-0.85 123.79-2L123.79-2Q123.79-3.2 123.99-4L123.99-4Q123.79-4.85 123.79-6L123.79-6Q123.79-7.2 123.99-8L123.99-8Q123.79-8.85 123.79-10L123.79-10Q123.79-11.2 123.99-12L123.99-12Q123.79-12.85 123.79-14L123.79-14Q123.79-15.2 123.99-16L123.99-16Q123.79-16.85 123.79-18L123.79-18Q123.79-19.2 123.99-20L123.99-20Q123.79-20.85 123.79-22L123.79-22Q123.79-23.2 123.99-24L123.99-24Q123.79-24.85 123.79-26L123.79-26Q123.79-27.2 123.99-28L123.99-28 135.99-28Q136.19-27.2 136.19-26L136.19-26Q136.19-24.85 135.99-24L135.99-24 127.99-24Q128.19-23.2 128.19-22L128.19-22Q128.19-20.85 127.99-20L127.99-20Q128.19-19.2 128.19-18L128.19-18Q128.19-16.85 127.99-16L127.99-16 135.99-16Q136.19-15.2 136.19-14L136.19-14Q136.19-12.85 135.99-12L135.99-12ZM157.98-24Q158.18-23.2 158.18-22L158.18-22Q158.18-20.85 157.98-20L157.98-20Q158.18-19.2 158.18-18L158.18-18Q158.18-16.85 157.98-16L157.98-16 156.48-16Q156.68-15.2 156.68-14L156.68-14Q156.68-12.85 156.48-12L156.48-12 154.98-12Q155.18-11.2 155.18-10L155.18-10Q155.18-8.85 154.98-8L154.98-8 153.98-8Q154.18-7.2 154.18-6L154.18-6Q154.18-4.85 153.98-4L153.98-4 151.98-4Q152.18-3.2 152.18-2L152.18-2Q152.18-0.85 151.98 0L151.98 0 147.98 0Q147.78-0.85 147.78-2L147.78-2Q147.78-3.2 147.98-4L147.98-4 145.98-4Q145.78-4.85 145.78-6L145.78-6Q145.78-7.2 145.98-8L145.98-8 144.98-8Q144.78-8.85 144.78-10L144.78-10Q144.78-11.2 144.98-12L144.98-12 143.48-12Q143.28-12.85 143.28-14L143.28-14Q143.28-15.2 143.48-16L143.48-16 141.98-16Q141.78-16.85 141.78-18L141.78-18Q141.78-19.2 141.98-20L141.98-20Q141.78-20.85 141.78-22L141.78-22Q141.78-23.2 141.98-24L141.98-24Q141.78-24.85 141.78-26L141.78-26Q141.78-27.2 141.98-28L141.98-28 145.98-28Q146.18-27.2 146.18-26L146.18-26Q146.18-24.85 145.98-24L145.98-24Q146.18-23.2 146.18-22L146.18-22Q146.18-20.85 145.98-20L145.98-20Q146.18-19.2 146.18-18L146.18-18Q146.18-16.85 145.98-16L145.98-16 147.48-16Q147.68-15.2 147.68-14L147.68-14Q147.68-12.85 147.48-12L147.48-12 148.98-12Q149.18-11.2 149.18-10L149.18-10Q149.18-8.85 148.98-8L148.98-8 150.98-8Q150.78-8.85 150.78-10L150.78-10Q150.78-11.2 150.98-12L150.98-12 152.48-12Q152.28-12.85 152.28-14L152.28-14Q152.28-15.2 152.48-16L152.48-16 153.98-16Q153.78-16.85 153.78-18L153.78-18Q153.78-19.2 153.98-20L153.98-20Q153.78-20.85 153.78-22L153.78-22Q153.78-23.2 153.98-24L153.98-24Q153.78-24.85 153.78-26L153.78-26Q153.78-27.2 153.98-28L153.98-28 157.98-28Q158.18-27.2 158.18-26L158.18-26Q158.18-24.85 157.98-24L157.98-24Z" opacity="1" transform="matrix(1,0,0,1,0,0)" fill="#000000" class="wordmark-text-0" data-fill-palette-color="primary" id="text-0"></path></svg></g></svg></g><g transform="matrix(1,0,0,1,0,54.09079703845319)"><svg viewBox="0 0 150.93636479999998 24.9962252015577" height="24.9962252015577" width="150.93636479999998"><g transform="matrix(1,0,0,1,0,0)"><svg width="150.93636479999998" viewBox="3 -39.65 243.92 40.4" height="24.9962252015577" data-palette-color="#000000"><path d="M3-34.55L9.35-34.55 9.35-5.25 20.5-5.25 19.8 0 3 0 3-34.55ZM33.1-27.15Q38.1-27.15 40.87-23.65 43.65-20.15 43.65-13.25L43.65-13.25Q43.65-6.65 40.85-2.95 38.05 0.75 33.1 0.75L33.1 0.75Q28.15 0.75 25.35-2.88 22.55-6.5 22.55-13.25L22.55-13.25Q22.55-19.95 25.35-23.55 28.15-27.15 33.1-27.15L33.1-27.15ZM33.1-22.5Q30.95-22.5 29.95-20.38 28.95-18.25 28.95-13.25L28.95-13.25Q28.95-8.2 29.95-6.08 30.95-3.95 33.1-3.95L33.1-3.95Q35.25-3.95 36.25-6.08 37.25-8.2 37.25-13.25L37.25-13.25Q37.25-18.3 36.25-20.4 35.25-22.5 33.1-22.5L33.1-22.5ZM65.64-26.45L59.55-14.15 66.69 0 60.2 0 55.8-10.65 51.49 0 45.14 0 52.3-13.95 45.84-26.45 52.24-26.45 55.89-17.25 59.45-26.45 65.64-26.45ZM105.44-34.55L107.64 0 101.59 0 100.99-14.6Q100.69-22.6 100.69-26L100.69-26 100.74-28.6 95.99-3.8 89.99-3.8 85.04-28.65Q85.09-27.15 85.09-24.05L85.09-24.05Q85.09-18.8 84.89-14.4L84.89-14.4 84.34 0 78.39 0 80.59-34.55 88.59-34.55 93.09-10.2 97.29-34.55 105.44-34.55ZM131.29-13.85Q131.29-13.4 131.14-11.3L131.14-11.3 117.49-11.3Q117.69-7.2 118.91-5.58 120.14-3.95 122.39-3.95L122.39-3.95Q123.94-3.95 125.19-4.48 126.44-5 127.89-6.15L127.89-6.15 130.44-2.65Q126.94 0.75 122.04 0.75L122.04 0.75Q116.84 0.75 114.06-2.85 111.29-6.45 111.29-13L111.29-13Q111.29-19.55 113.94-23.35 116.59-27.15 121.44-27.15L121.44-27.15Q126.09-27.15 128.69-23.78 131.29-20.4 131.29-13.85L131.29-13.85ZM125.29-15.3L125.29-15.65Q125.29-19.4 124.39-21.13 123.49-22.85 121.49-22.85L121.49-22.85Q119.64-22.85 118.66-21.18 117.69-19.5 117.49-15.3L117.49-15.3 125.29-15.3ZM147.94-27.15Q150.79-27.15 152.44-25.1 154.09-23.05 154.09-19.6L154.09-19.6 154.09 0 147.94 0 147.94-18.9Q147.94-20.8 147.41-21.63 146.89-22.45 145.89-22.45L145.89-22.45Q143.79-22.45 141.74-18.5L141.74-18.5 141.74 0 135.59 0 135.59-26.45 140.94-26.45 141.39-23Q142.74-25.1 144.26-26.13 145.79-27.15 147.94-27.15L147.94-27.15ZM170.78-5L172.93-1.2Q170.48 0.75 167.18 0.75L167.18 0.75Q163.73 0.75 161.93-1.23 160.13-3.2 160.13-6.6L160.13-6.6 160.13-22 157.03-22 157.03-26.45 160.13-26.45 160.13-32.3 166.28-33.05 166.28-26.45 171.28-26.45 170.68-22 166.28-22 166.28-6.6Q166.28-4.2 168.33-4.2L168.33-4.2Q168.98-4.2 169.48-4.38 169.98-4.55 170.78-5L170.78-5ZM175.48-26.45L181.63-26.45 181.63 0 175.48 0 175.48-26.45ZM178.53-39.65Q180.18-39.65 181.21-38.6 182.23-37.55 182.23-35.9L182.23-35.9Q182.23-34.3 181.21-33.25 180.18-32.2 178.53-32.2L178.53-32.2Q176.88-32.2 175.86-33.25 174.83-34.3 174.83-35.9L174.83-35.9Q174.83-37.55 175.86-38.6 176.88-39.65 178.53-39.65L178.53-39.65ZM197.33-34.55L214.48-34.55 213.83-29.8 203.68-29.8 203.68-19.9 212.53-19.9 212.53-15.2 203.68-15.2 203.68-4.8 214.48-4.8 214.48 0 197.33 0 197.33-34.55ZM231.22-26.45L237.27-26.45 230.37 0 223.12 0 216.02-26.45 222.37-26.45 226.72-4.95 231.22-26.45ZM240.17-26.45L246.32-26.45 246.32 0 240.17 0 240.17-26.45ZM243.22-39.65Q244.87-39.65 245.9-38.6 246.92-37.55 246.92-35.9L246.92-35.9Q246.92-34.3 245.9-33.25 244.87-32.2 243.22-32.2L243.22-32.2Q241.57-32.2 240.55-33.25 239.52-34.3 239.52-35.9L239.52-35.9Q239.52-37.55 240.55-38.6 241.57-39.65 243.22-39.65L243.22-39.65Z" opacity="1" transform="matrix(1,0,0,1,0,0)" fill="#000000" class="slogan-text-1" data-fill-palette-color="secondary" id="text-1"></path></svg></g></svg></g></svg></g></svg></g></svg></g></svg></g><path d="M216.073 78.056L216.073 16.405 1.683 16.405 1.683 230.795 216.073 230.795 216.073 169.144 212.127 169.144 212.127 226.849 5.629 226.849 5.629 20.351 212.127 20.351 212.127 78.056Z" fill="#000000" stroke="transparent" data-fill-palette-color="tertiary"></path></svg></g><defs></defs></svg><rect width="395.52" height="247.2" fill="none" stroke="none" visibility="hidden"></rect></g></svg></g></svg>